<svg xmlns="http://www.w3.org/2000/svg" width="792" height="252.381" viewBox="0 0 792 252.381"><path fill="#00517E" d="M44.232 108.385h12.813v74.07H44.232z"/><g fill="#00517E"><path d="M117.34 130.542h12.4v52.238h-12.192l-.63-7.628c-2.97 6.146-11.122 9.11-16.954 9.22-15.47.104-26.918-9.438-26.918-27.766 0-18.006 11.978-27.442 27.236-27.338 6.993 0 13.665 3.286 16.635 8.48l.422-7.206zM85.97 156.606c0 9.968 6.89 15.9 15.47 15.9 20.343 0 20.343-31.688 0-31.688-8.58 0-15.47 5.828-15.47 15.788"/><path d="M160.763 130.542v27.334c0 7.95 4.354 13.996 12.622 13.996 7.94 0 13.344-6.68 13.344-14.622v-26.708h12.82v52.343h-11.547l-.844-7.1c-5.416 5.3-10.383 7.84-17.698 7.84-12.51 0-21.616-9.43-21.616-25.636V130.54h12.917zM256.496 182.78v-27.34c0-7.942-4.353-13.982-12.617-13.982-7.944 0-13.35 6.676-13.35 14.618v26.704h-12.817v-52.344h11.544l.847 7.102c5.293-5.197 10.595-7.844 17.172-7.844 12.286 0 22.146 9.22 22.146 25.646v27.44h-12.926zM333.483 176.104c-6.037 5.937-12.395 8.268-20.133 8.268-15.148 0-27.762-9.116-27.762-27.663 0-18.536 12.614-27.65 27.762-27.65 7.416 0 13.14 2.114 18.863 7.735l-8.155 8.58c-3.075-2.747-6.885-4.13-10.486-4.13-8.694 0-15.05 6.358-15.05 15.464 0 9.96 6.773 15.262 14.828 15.262 4.132 0 8.264-1.16 11.452-4.344l8.68 8.476zM360.802 108.61v29.033c4.658-6.04 10.377-7.84 16.314-7.84 14.832 0 21.408 10.058 21.408 25.42v27.557h-12.93v-27.44c0-9.538-4.98-13.565-11.87-13.565-7.63 0-12.922 6.463-12.922 14.302v26.704h-12.94v-74.17h12.94zM412.533 192.696h78.81v11.344h-78.81zM545.835 176.104c-6.036 5.937-12.396 8.268-20.12 8.268-15.16 0-27.77-9.116-27.77-27.663 0-18.536 12.608-27.65 27.77-27.65 7.41 0 13.136 2.114 18.858 7.735l-8.168 8.58c-3.066-2.747-6.89-4.13-10.48-4.13-8.7 0-15.05 6.358-15.05 15.464 0 9.96 6.776 15.262 14.84 15.262 4.127 0 8.256-1.16 11.43-4.344l8.69 8.476zM610.074 156.71c0 15.05-10.277 27.236-27.235 27.236s-27.127-12.188-27.127-27.236c0-14.936 10.382-27.23 27.02-27.23 16.638 0 27.34 12.294 27.34 27.23m-41.435 0c0 7.95 4.772 15.37 14.2 15.37 9.43 0 14.2-7.42 14.2-15.37 0-7.837-5.51-15.466-14.2-15.466-9.328 0-14.2 7.63-14.2 15.466M679.32 108.713v74.067h-12.078l-.85-7.203c-4.022 6.246-10.485 8.37-16.844 8.37-15.36 0-26.922-10.17-26.922-27.34 0-18.007 11.34-27.34 26.6-27.34 5.512 0 14.092 2.974 17.167 8.376v-28.93h12.927zm-43.758 47.893c0 9.116 6.567 15.365 14.836 15.365 8.154 0 15.148-5.926 15.148-15.364 0-9.108-6.994-15.258-15.148-15.258-8.27 0-14.836 5.83-14.836 15.258"/><path d="M707.334 161.277c.853 6.454 6.472 11.12 15.58 11.12 4.774 0 11.02-1.805 13.982-4.875l8.277 8.155c-5.516 5.728-14.527 8.48-22.47 8.48-18.015 0-28.714-11.13-28.714-27.874 0-15.89 10.803-27.333 27.76-27.333 17.48 0 28.397 10.806 26.375 32.326h-40.79zm28.4-10.71c-.848-6.783-6.145-10.172-13.56-10.172-6.986 0-12.71 3.39-14.623 10.173h28.185z"/></g><g fill="#00517E"><path d="M451.538 81.316c-5.17 0-9.37 4.208-9.37 9.364 0 5.166 4.2 9.367 9.37 9.367 5.15 0 9.353-4.2 9.353-9.367 0-5.156-4.202-9.364-9.352-9.364m0 13.705c-2.393 0-4.35-1.94-4.35-4.34 0-2.39 1.957-4.337 4.35-4.337 2.396 0 4.333 1.946 4.333 4.337 0 2.4-1.936 4.34-4.332 4.34"/><path d="M484.17 111.177l-9.307-13.847c.975-12.395-.81-29.084-21.438-49.18-.48-.462-1.163-.725-1.89-.725h-.011c-.726 0-1.407.263-1.89.725-20.627 20.095-22.412 36.785-21.437 49.18l-9.307 13.847c-.313.47-.412 1.033-.267 1.57l7.217 26.37c.24.863 1.073 1.517 2.1 1.642.114.01.235.02.355.02.896 0 1.73-.41 2.188-1.097l7.215-10.97 11.58 36.463c.318.877 1.22 1.473 2.252 1.515 1.032-.04 1.934-.637 2.252-1.514l11.58-36.462 7.215 10.97c.456.685 1.29 1.095 2.188 1.095.12 0 .24-.01.355-.02 1.025-.126 1.86-.78 2.1-1.644l7.216-26.37c.146-.537.047-1.1-.266-1.57zm-48.435 11.73l-6.47 9.845-5.523-20.165 6.252-9.3 5.942 19.378c-.07.084-.15.155-.2.242zm15.795 33.998l-7.862-25.65h3.885l3.978 12.977 3.98-12.977h3.884l-7.864 25.65zm13.818-45.41l-1.58 5.137.005-.004-2.913 9.468-.262.852h-18.136l-.262-.852-2.913-9.468.004.004-1.578-5.137-4.466-14.56c-.014-.027-.035-.048-.047-.074-.82-11.15.783-26.016 18.323-43.972l.006.006c0-.002.003-.004.005-.006 17.54 17.956 19.145 32.823 18.324 43.973-.013.027-.034.048-.048.075l-4.464 14.56zm8.448 21.257l-6.47-9.845c-.052-.087-.133-.158-.202-.24l5.942-19.38 6.252 9.3-5.522 20.165z"/></g></svg>